# xmcd CD database file
#
# Track frame offsets:
#	150
#	13409
#	27891
#	39376
#	50125
#	61972
#	74044
#	86429
#	98831
#	113325
#	126090
#	137287
#	150656
#	162543
#	172825
#	183945
#	196204
#	207336
#	217993
#	231478
#
# Disc length: 3242 seconds
#
# Revision: 0
# Processed by: cddbd v1.4PL0 Copyright (c) Steve Scherf et al.
# Submitted via: CDex 1.50
#
DISCID=130ca814
DTITLE=Brownie Mc Ghee - 1944-1955
DYEAR=1990
DGENRE=Blues
TTITLE0=Watch Out
TTITLE1=Dissatisfied Woman
TTITLE2=Rum Cola Papa
TTITLE3=Gin Headed Woman
TTITLE4=Brownie's Guitar Boogie
TTITLE5=Evil But Kindhearted
TTITLE6=My Bulldog Blues
TTITLE7=Big Legged Woman
TTITLE8=Cheatin' And Lyin'
TTITLE9=Need Someone To Love Me
TTITLE10=Baby Baby Blues
TTITLE11=Doggin' Blues
TTITLE12=Big Chief's Blues
TTITLE13=Featerweight Mama
TTITLE14=I'm Gonna Rock
TTITLE15=Tell Me Pretty Baby
TTITLE16=Let's Have A Ball
TTITLE17=Drinkin' Wine Spo-Dee-O-Dee
TTITLE18=Day Break
TTITLE19=My Baby Likes To Shuffle
EXTD=YEAR: 1990
EXTT0=
EXTT1=
EXTT2=
EXTT3=
EXTT4=
EXTT5=
EXTT6=
EXTT7=
EXTT8=
EXTT9=
EXTT10=
EXTT11=
EXTT12=
EXTT13=
EXTT14=
EXTT15=
EXTT16=
EXTT17=
EXTT18=
EXTT19=
PLAYORDER=
